<svg width="49" height="48" viewBox="0 0 49 48" fill="none" xmlns="http://www.w3.org/2000/svg">
<g clip-path="url(#clip0_1_123)">
<g clip-path="url(#clip1_1_123)">
<path d="M43.5886 12.5253H38.519V7.45567C38.519 6.55931 38.1629 5.69966 37.5291 5.06583C36.8952 4.43201 36.0356 4.07593 35.1392 4.07593H14.8608C13.9644 4.07593 13.1047 4.43201 12.4709 5.06583C11.8371 5.69966 11.481 6.55931 11.481 7.45567V12.5253H6.41139C5.06684 12.5253 3.77736 13.0594 2.82662 14.0102C1.87589 14.9609 1.34177 16.2504 1.34177 17.5949V41.2531C1.34177 42.1495 1.69785 43.0092 2.33167 43.643C2.9655 44.2768 3.82515 44.6329 4.72151 44.6329H45.2785C46.1748 44.6329 47.0345 44.2768 47.6683 43.643C48.3021 43.0092 48.6582 42.1495 48.6582 41.2531V17.5949C48.6582 16.2504 48.1241 14.9609 47.1734 14.0102C46.2226 13.0594 44.9331 12.5253 43.5886 12.5253ZM14.8608 7.45567H35.1392V12.5253H14.8608V7.45567ZM45.2785 41.2531H4.72151V26.0443H18.2405V34.4936H31.7595V26.0443H45.2785V41.2531ZM21.6202 26.0443H28.3797V31.1139H21.6202V26.0443ZM4.72151 22.6645V17.5949C4.72151 17.1467 4.89955 16.7169 5.21647 16.4C5.53338 16.0831 5.9632 15.905 6.41139 15.905H43.5886C44.0368 15.905 44.4666 16.0831 44.7835 16.4C45.1004 16.7169 45.2785 17.1467 45.2785 17.5949V22.6645H4.72151Z" fill="#00A0C1"/>
</g>
</g>
<defs>
<clipPath id="clip0_1_123">
<rect width="48" height="48" fill="white" transform="translate(0.5)"/>
</clipPath>
<clipPath id="clip1_1_123">
<rect width="48" height="40.7089" fill="white" transform="translate(1 4)"/>
</clipPath>
</defs>
</svg>
