<svg width="103" height="24" viewBox="0 0 103 24" fill="none" xmlns="http://www.w3.org/2000/svg">
<path d="M-0.0079999 2.2H3.88V19H-0.0079999V2.2ZM15.551 5.896C17.151 5.896 18.439 6.376 19.415 7.336C20.407 8.296 20.903 9.72 20.903 11.608V19H17.159V12.184C17.159 11.16 16.935 10.4 16.487 9.904C16.039 9.392 15.391 9.136 14.543 9.136C13.599 9.136 12.847 9.432 12.287 10.024C11.727 10.6 11.447 11.464 11.447 12.616V19H7.703V6.088H11.279V7.6C11.775 7.056 12.391 6.64 13.127 6.352C13.863 6.048 14.671 5.896 15.551 5.896ZM37.6894 1.192V19H34.1134V17.512C33.1854 18.632 31.8414 19.192 30.0814 19.192C28.8654 19.192 27.7614 18.92 26.7694 18.376C25.7934 17.832 25.0254 17.056 24.4654 16.048C23.9054 15.04 23.6254 13.872 23.6254 12.544C23.6254 11.216 23.9054 10.048 24.4654 9.04C25.0254 8.032 25.7934 7.256 26.7694 6.712C27.7614 6.168 28.8654 5.896 30.0814 5.896C31.7294 5.896 33.0174 6.416 33.9454 7.456V1.192H37.6894ZM30.7294 16.12C31.6734 16.12 32.4574 15.8 33.0814 15.16C33.7054 14.504 34.0174 13.632 34.0174 12.544C34.0174 11.456 33.7054 10.592 33.0814 9.952C32.4574 9.296 31.6734 8.968 30.7294 8.968C29.7694 8.968 28.9774 9.296 28.3534 9.952C27.7294 10.592 27.4174 11.456 27.4174 12.544C27.4174 13.632 27.7294 14.504 28.3534 15.16C28.9774 15.8 29.7694 16.12 30.7294 16.12ZM41.2546 6.088H44.9986V19H41.2546V6.088ZM43.1266 4.288C42.4386 4.288 41.8786 4.088 41.4466 3.688C41.0146 3.288 40.7986 2.792 40.7986 2.2C40.7986 1.608 41.0146 1.112 41.4466 0.711999C41.8786 0.311999 42.4386 0.111999 43.1266 0.111999C43.8146 0.111999 44.3746 0.303999 44.8066 0.688C45.2386 1.072 45.4546 1.552 45.4546 2.128C45.4546 2.752 45.2386 3.272 44.8066 3.688C44.3746 4.088 43.8146 4.288 43.1266 4.288ZM54.8133 19.192C53.4373 19.192 52.1973 18.912 51.0933 18.352C50.0053 17.776 49.1493 16.984 48.5253 15.976C47.9173 14.968 47.6133 13.824 47.6133 12.544C47.6133 11.264 47.9173 10.12 48.5253 9.112C49.1493 8.104 50.0053 7.32 51.0933 6.76C52.1973 6.184 53.4373 5.896 54.8133 5.896C56.1733 5.896 57.3573 6.184 58.3653 6.76C59.3893 7.32 60.1333 8.128 60.5973 9.184L57.6933 10.744C57.0213 9.56 56.0533 8.968 54.7893 8.968C53.8133 8.968 53.0053 9.288 52.3653 9.928C51.7253 10.568 51.4053 11.44 51.4053 12.544C51.4053 13.648 51.7253 14.52 52.3653 15.16C53.0053 15.8 53.8133 16.12 54.7893 16.12C56.0693 16.12 57.0373 15.528 57.6933 14.344L60.5973 15.928C60.1333 16.952 59.3893 17.752 58.3653 18.328C57.3573 18.904 56.1733 19.192 54.8133 19.192ZM68.8329 19.192C67.4729 19.192 66.2489 18.912 65.1609 18.352C64.0889 17.776 63.2489 16.984 62.6409 15.976C62.0329 14.968 61.7289 13.824 61.7289 12.544C61.7289 11.264 62.0329 10.12 62.6409 9.112C63.2489 8.104 64.0889 7.32 65.1609 6.76C66.2489 6.184 67.4729 5.896 68.8329 5.896C70.1929 5.896 71.4089 6.184 72.4809 6.76C73.5529 7.32 74.3929 8.104 75.0009 9.112C75.6089 10.12 75.9129 11.264 75.9129 12.544C75.9129 13.824 75.6089 14.968 75.0009 15.976C74.3929 16.984 73.5529 17.776 72.4809 18.352C71.4089 18.912 70.1929 19.192 68.8329 19.192ZM68.8329 16.12C69.7929 16.12 70.5769 15.8 71.1849 15.16C71.8089 14.504 72.1209 13.632 72.1209 12.544C72.1209 11.456 71.8089 10.592 71.1849 9.952C70.5769 9.296 69.7929 8.968 68.8329 8.968C67.8729 8.968 67.0809 9.296 66.4569 9.952C65.8329 10.592 65.5209 11.456 65.5209 12.544C65.5209 13.632 65.8329 14.504 66.4569 15.16C67.0809 15.8 67.8729 16.12 68.8329 16.12ZM82.0915 7.792C82.5395 7.168 83.1395 6.696 83.8915 6.376C84.6595 6.056 85.5395 5.896 86.5315 5.896V9.352C86.1155 9.32 85.8355 9.304 85.6915 9.304C84.6195 9.304 83.7795 9.608 83.1715 10.216C82.5635 10.808 82.2595 11.704 82.2595 12.904V19H78.5155V6.088H82.0915V7.792ZM96.4897 5.896C97.6897 5.896 98.7777 6.176 99.7537 6.736C100.746 7.28 101.522 8.056 102.082 9.064C102.642 10.056 102.922 11.216 102.922 12.544C102.922 13.872 102.642 15.04 102.082 16.048C101.522 17.04 100.746 17.816 99.7537 18.376C98.7777 18.92 97.6897 19.192 96.4897 19.192C94.8417 19.192 93.5457 18.672 92.6017 17.632V23.656H88.8577V6.088H92.4337V7.576C93.3617 6.456 94.7137 5.896 96.4897 5.896ZM95.8417 16.12C96.8017 16.12 97.5857 15.8 98.1937 15.16C98.8177 14.504 99.1297 13.632 99.1297 12.544C99.1297 11.456 98.8177 10.592 98.1937 9.952C97.5857 9.296 96.8017 8.968 95.8417 8.968C94.8817 8.968 94.0897 9.296 93.4657 9.952C92.8577 10.592 92.5537 11.456 92.5537 12.544C92.5537 13.632 92.8577 14.504 93.4657 15.16C94.0897 15.8 94.8817 16.12 95.8417 16.12Z" fill="#252B42"/>
</svg>
